:version 1.10
:name ASF
:units
  mass 1
  length 1
  angle deg
:documentation
  ASF file generated by Kaydara
:root
  axis xyz
  order  tx ty tz rx ry rz
  position 0 0 0
  orientation 0 0 0
:bonedata
  begin
    id 1
    name abdomenDummy
    direction 1 -1.27917e-005 -1.26829e-007
    length 1.79048
    axis 0 0 0 xyz
  end
  begin
    id 2
    name abdomen
    direction 0.987238 0.159249 -9.68575e-008
    length 8.61378
    axis 2.73208e-005 5.54953e-006 9.16328 xyz
    dof rx ry rz
  end
  begin
    id 3
    name chest
    direction 0 0 0
    length 0
    axis 2.65071e-005 8.63688e-006 2.59796 xyz
    dof rx ry rz
  end
  begin
    id 4
    name neckDummyDummy
    direction 0.998972 0.0453274 -1.50742e-007
    length 9.56202
    axis 2.65071e-005 8.63688e-006 2.59796 xyz
  end
  begin
    id 5
    name neckDummy
    direction 0.99977 0.0214525 -1.61748e-007
    length 1.93574
    axis 2.62932e-005 9.26758e-006 1.22924 xyz
    dof rx ry rz
  end
  begin
    id 6
    name neck
    direction 0.99928 -0.0379406 -1.88707e-007
    length 3.70367
    axis 2.56966e-005 1.08122e-005 -2.17436 xyz
    dof rx ry rz
  end
  begin
    id 7
    name head
    direction 0.992648 -0.121037 -2.25408e-007
    length 6.35158
    axis 2.47068e-005 1.29149e-005 -6.95196 xyz
    dof rx ry rz
  end
  begin
    id 8
    name figureHair
    direction -0.86681 -0.498639 -7.83376e-008
    length 8.29884
    axis -2.7515e-005 4.48842e-006 -150.09 xyz
    dof rx ry rz
  end
  begin
    id 9
    name lCollarDummy
    direction 0.994611 0.0451299 -0.0933417
    length 9.60395
    axis 2.65071e-005 8.63688e-006 2.59796 xyz
  end
  begin
    id 10
    name lCollar
    direction 0.0384146 0.00127577 -0.999261
    length 6.95318
    axis 90.4899 87.7973 1.90202 xyz
    dof rx ry rz
  end
  begin
    id 11
    name lShldr
    direction -0.030648 0.0920515 -0.995282
    length 9.61158
    axis -161.793 84.4324 108.415 xyz
    dof rx ry rz
  end
  begin
    id 12
    name lForeArm
    direction 0.000163956 -0.0977586 -0.99521
    length 8.6068
    axis 0.134773 84.3899 -89.8525 xyz
    dof rx ry rz
  end
  begin
    id 13
    name lHand
    direction -0.0190533 -0.1444 -0.989336
    length 7.61479
    axis -7.3729 81.6249 -97.517 xyz
    dof rx ry rz
  end
  begin
    id 14
    name rCollarDummy
    direction 0.994871 0.0442627 0.0909555
    length 9.60761
    axis 2.65071e-005 8.63688e-006 2.59796 xyz
  end
  begin
    id 15
    name rCollar
    direction 0.0334251 -4.74072e-007 0.999441
    length 6.97058
    axis -178.152 -88.0845 -0.000674207 xyz
    dof rx ry rz
  end
  begin
    id 16
    name rShldr
    direction -0.026922 0.0719509 0.997045
    length 9.60913
    axis 71.2822 -85.594 110.514 xyz
    dof rx ry rz
  end
  begin
    id 17
    name rForeArm
    direction 0.00134679 -0.118986 0.992895
    length 8.57176
    axis -88.7923 -83.1659 -89.3516 xyz
    dof rx ry rz
  end
  begin
    id 18
    name rHand
    direction -0.0185183 -0.0768601 0.99687
    length 7.69687
    axis -74.5596 -85.4655 -103.546 xyz
    dof rx ry rz
  end
  begin
    id 19
    name lThighDummy
    direction -0.236086 -0.0385456 -0.970967
    length 4.99155
    axis 0 0 0 xyz
  end
  begin
    id 20
    name lThigh
    direction -0.993968 0.0148998 -0.108653
    length 13.572
    axis -91.4001 6.23768 179.141 xyz
    dof rx ry rz
  end
  begin
    id 21
    name lShin
    direction -0.992341 0.0904576 -0.0841193
    length 18.5862
    axis -91.4558 4.82538 174.792 xyz
    dof rx ry rz
  end
  begin
    id 22
    name lFoot
    direction 0.0209381 -0.999771 -0.00453005
    length 8.44474
    axis 4.86759 0.259522 -88.8001 xyz
    dof rx ry rz
  end
  begin
    id 23
    name rThighDummy
    direction -0.236086 -0.0385456 0.970967
    length 4.99155
    axis 0 0 0 xyz
  end
  begin
    id 24
    name rThigh
    direction -0.993968 0.0148995 0.108653
    length 13.5721
    axis -89.7059 -6.2377 179.141 xyz
    dof rx ry rz
  end
  begin
    id 25
    name rShin
    direction -0.9925 0.0899962 0.0827255
    length 18.6716
    axis -89.2745 -4.74775 174.819 xyz
    dof rx ry rz
  end
  begin
    id 26
    name rFoot
    direction 0.0301721 -0.999545 9.70865e-005
    length 8.45013
    axis -2.50066e-005 -0.00555246 -88.271 xyz
    dof rx ry rz
  end
:hierarchy
  begin
    root abdomenDummy lThighDummy rThighDummy
    abdomenDummy abdomen
    abdomen chest
    chest neckDummyDummy lCollarDummy rCollarDummy
    neckDummyDummy neckDummy
    neckDummy neck
    neck head
    head figureHair
    lCollarDummy lCollar
    lCollar lShldr
    lShldr lForeArm
    lForeArm lHand
    rCollarDummy rCollar
    rCollar rShldr
    rShldr rForeArm
    rForeArm rHand
    lThighDummy lThigh
    lThigh lShin
    lShin lFoot
    rThighDummy rThigh
    rThigh rShin
    rShin rFoot
  end

:SAMPLES-PER-SECOND 25
:FULLY-SPECIFIED
:DEGREES
1515
root  5.85173 38.4618 1.689 174.3 -23.4801 94.646
abdomen  0.783346 6.94337 -4.94528
chest  -2.1027 -15.1709 -4.10884
neckDummy  9.09964e-021 0 8.72668e-016
neck  0.749125 3.89055 -16.9546
head  0.913279 -9.34462 -15.8325
figureHair  0 1.51661e-021 -9.5315e-016
lCollar  -5.15695e-016 -6.42944e-016 -7.59357e-014
lShldr  5.02593 5.14443 -74.3353
lForeArm  34.104 -32.4922 -0.0574481
lHand  0.254698 0.195082 5.2986
rCollar  1.7976e-016 -5.12864e-014 1.62755e-015
rShldr  -50.9193 57.4936 -40.6931
rForeArm  3.22498 1.16667 18.2831
rHand  -0.458116 -21.7539 6.67763
lThigh  -18.7927 -14.8741 19.7967
lShin  -7.04903 14.1193 -1.15995
lFoot  7.36355 -0.821006 -0.0380011
rThigh  31.9314 -32.7785 -10.9373
rShin  3.0042 60.6358 -2.65829
rFoot  7.50799 -1.12732 -8.39625
1516
root  5.86097 38.1237 1.55393 174.104 -20.2906 94.9496
abdomen  1.21459 8.00669 -3.98886
chest  -1.42884 -13.4034 -4.98618
neckDummy  9.09964e-021 0 8.72668e-016
neck  1.1174 4.57066 -19.5979
head  1.23971 -8.70179 -15.65
figureHair  0 1.51661e-021 -9.5315e-016
lCollar  -5.15695e-016 -6.42944e-016 -7.59357e-014
lShldr  4.84015 5.85328 -75.0643
lForeArm  33.6116 -32.6873 -0.0473578
lHand  0.254698 0.195082 5.2986
rCollar  1.7976e-016 -5.12864e-014 1.62755e-015
rShldr  -51.9626 58.3129 -40.7061
rForeArm  2.62576 1.07641 20.7639
rHand  -0.470186 -22.5006 6.67897
lThigh  -17.8613 -16.4023 17.122
lShin  -8.47877 16.0588 -1.81146
lFoot  7.86861 -0.942244 0.896655
rThigh  30.7878 -27.8849 -5.575
rShin  -1.23767 47.5874 -2.15555
rFoot  10.1861 -0.907759 -7.35175
1517
root  5.85609 37.7442 1.44232 174.177 -16.5587 95.1082
abdomen  1.67877 9.46322 -3.14488
chest  -0.7663 -11.9217 -6.04867
neckDummy  9.09964e-021 0 8.72668e-016
neck  1.29933 5.47495 -21.6739
head  1.40132 -8.46215 -15.5361
figureHair  0 1.51661e-021 -9.5315e-016
lCollar  -5.15695e-016 -6.42944e-016 -7.59357e-014
lShldr  4.18859 6.58254 -75.4189
lForeArm  33.4527 -32.4407 -0.0600486
lHand  0.254698 0.195082 5.2986
rCollar  1.7976e-016 -5.12864e-014 1.62755e-015
rShldr  -52.7773 59.0653 -40.1202
rForeArm  2.43214 1.05886 22.9813
rHand  -0.397768 -22.4759 6.34578
lThigh  -16.4305 -17.7774 13.6253
lShin  -10.1789 17.6853 -2.46637
lFoot  7.93039 -1.01578 1.85244
rThigh  31.1822 -23.081 -2.43635
rShin  -6.79489 34.43 -1.98337
rFoot  10.8134 -1.4608 -6.11288
1518
root  5.84489 37.3762 1.35534 174.031 -12.9342 95.027
abdomen  2.17398 10.1269 -2.86345
chest  0.05625 -9.98601 -6.81843
neckDummy  9.09964e-021 0 8.72668e-016
neck  1.34934 6.38112 -23.2078
head  1.46527 -8.61527 -15.4962
figureHair  0 1.51661e-021 -9.5315e-016
lCollar  -5.15695e-016 -6.42944e-016 -7.59357e-014
lShldr  3.64302 7.31085 -75.3201
lForeArm  33.1102 -31.6917 -0.0981821
lHand  0.254698 0.195082 5.2986
rCollar  1.7976e-016 -5.12864e-014 1.62755e-015
rShldr  -53.3262 59.7694 -39.4209
rForeArm  1.3747 1.0368 24.7652
rHand  -0.403132 -22.4773 6.37011
lThigh  -14.8396 -18.8562 9.95204
lShin  -12.0428 19.1388 -2.9029
lFoot  8.01434 -1.0846 2.64344
rThigh  28.6324 -18.6208 -0.491257
rShin  -9.54696 21.8289 -0.796519
rFoot  10.5597 -1.16713 -4.3759
1519
root  5.83086 36.9825 1.26349 173.943 -9.33304 94.6745
abdomen  2.49614 10.133 -3.1836
chest  0.850145 -7.54638 -7.53693
neckDummy  9.09964e-021 0 8.72668e-016
neck  1.28165 6.95237 -24.2338
head  1.38327 -8.46258 -15.1798
figureHair  0 1.51661e-021 -9.5315e-016
lCollar  -5.15695e-016 -6.42944e-016 -7.59357e-014
lShldr  3.22562 7.94587 -74.8017
lForeArm  32.2814 -30.6026 -0.15265
lHand  0.254698 0.195082 5.2986
rCollar  1.7976e-016 -5.12864e-014 1.62755e-015
rShldr  -53.0912 60.6706 -38.3186
rForeArm  0.461985 1.02204 25.9078
rHand  -0.449969 -22.8792 6.55995
lThigh  -13.6585 -19.7099 6.54979
lShin  -13.5046 20.9229 -3.40892
lFoot  7.9217 -1.14077 3.62609
rThigh  13.6008 -13.8595 -0.185288
rShin  1.12413 9.47876 4.74882
rFoot  11.3126 -1.34261 -3.72136
1520
root  5.82224 36.6448 1.18491 174.656 -5.78699 94.2982
abdomen  2.42733 10.9436 -3.8961
chest  1.02384 -6.26064 -7.94844
neckDummy  9.09964e-021 0 8.72668e-016
neck  1.06645 7.44938 -24.8758
head  1.10886 -8.18399 -14.5286
figureHair  0 1.51661e-021 -9.5315e-016
lCollar  -5.15695e-016 -6.42944e-016 -7.59357e-014
lShldr  2.97752 8.78638 -74.1689
lForeArm  31.3859 -29.502 -0.20646
lHand  0.254698 0.195082 5.2986
rCollar  1.7976e-016 -5.12864e-014 1.62755e-015
rShldr  -52.1358 61.3907 -37.0202
rForeArm  0.580247 1.0101 26.8143
rHand  -0.460581 -23.2187 6.58469
lThigh  -12.3752 -20.1012 2.80577
lShin  -14.1068 21.5517 -3.84656
lFoot  7.92155 -1.17217 4.06347
rThigh  7.75477 -11.0939 -1.37189
rShin  3.50808 1.95297 4.67914
rFoot  9.36713 -0.855118 -4.817
1521
root  5.85969 36.5681 1.17595 176.153 -3.34137 94.3377
abdomen  1.99343 10.81 -4.82327
chest  0.710047 -5.87046 -7.95371
neckDummy  9.09964e-021 0 8.72668e-016
neck  0.692273 8.14739 -24.9016
head  0.68172 -8.32949 -14.3072
figureHair  0 1.51661e-021 -9.5315e-016
lCollar  -5.15695e-016 -6.42944e-016 -7.59357e-014
lShldr  3.57945 9.49204 -73.5447
lForeArm  30.3712 -28.1951 -0.268695
lHand  0.254698 0.195082 5.2986
rCollar  1.7976e-016 -5.12864e-014 1.62755e-015
rShldr  -50.6459 61.7408 -36.0031
rForeArm  0.898673 0.999801 27.578
rHand  -0.518236 -23.4673 6.82408
lThigh  -10.8794 -19.7425 -0.511866
lShin  -13.8192 19.7595 -3.7132
lFoot  8.51811 -1.19119 3.12735
rThigh  8.36616 -10.9621 -2.12587
rShin  2.10956 0.287385 3.4343
rFoot  3.3245 -1.1637 -7.60411
1522
root  5.91952 36.6431 1.17811 176.981 -2.54152 94.4031
abdomen  1.5998 7.8791 -5.62413
chest  0.691752 -4.53329 -8.42467
neckDummy  9.09964e-021 0 8.72668e-016
neck  0.188952 8.76307 -24.3915
head  0.121351 -8.31873 -14.6442
figureHair  0 1.51661e-021 -9.5315e-016
lCollar  -5.15695e-016 -6.42944e-016 -7.59357e-014
lShldr  4.63666 9.12334 -73.4092
lForeArm  28.9914 -25.9558 -0.371923
lHand  0.254698 0.195082 5.2986
rCollar  1.7976e-016 -5.12864e-014 1.62755e-015
rShldr  -47.8259 62.236 -33.8728
rForeArm  0.965326 1.00224 27.3247
rHand  -0.591426 -23.5064 7.14551
lThigh  -9.63616 -19.029 -2.08996
lShin  -13.8393 17.6836 -3.4844
lFoot  9.01555 -1.16993 2.04228
rThigh  8.74369 -10.8503 -2.40348
rShin  2.29732 -0.363785 3.0635
rFoot  -0.515493 -0.712477 -10.2137
1523
root  5.93726 36.6737 1.10785 176.783 -2.17883 94.2935
abdomen  1.59421 4.66852 -6.00446
chest  1.07827 -3.20425 -9.19397
neckDummy  9.09964e-021 0 8.72668e-016
neck  -0.349832 8.90302 -24.479
head  -0.474039 -7.75732 -14.4337
figureHair  0 1.51661e-021 -9.5315e-016
lCollar  -5.15695e-016 -6.42944e-016 -7.59357e-014
lShldr  4.91729 8.50678 -74.3234
lForeArm  27.0427 -23.2608 -0.491622
lHand  0.254698 0.195082 5.2986
rCollar  1.7976e-016 -5.12864e-014 1.62755e-015
rShldr  -44.1557 62.7531 -30.3234
rForeArm  1.45259 1.01495 26.2374
rHand  -0.513644 -23.1282 6.82905
lThigh  -8.39497 -18.3535 -2.29771
lShin  -15.2768 16.6957 -4.00611
lFoot  8.88881 -1.13229 1.76517
rThigh  9.37767 -10.8679 -3.04434
rShin  1.81595 -0.131017 3.41585
rFoot  0.541961 -0.861487 -10.159
1524
root  5.90645 36.6977 0.964031 176.599 -1.55777 94.3411
abdomen  1.75231 4.15953 -6.10604
chest  1.19707 -3.85862 -9.04007
neckDummy  9.09964e-021 0 8.72668e-016
neck  -0.641223 8.59222 -25.1246
head  -0.789778 -7.27942 -13.519
figureHair  0 1.51661e-021 -9.5315e-016
lCollar  -5.15695e-016 -6.42944e-016 -7.59357e-014
lShldr  5.06103 9.40833 -75.447
lForeArm  24.7168 -21.9464 -0.547938
lHand  0.254698 0.195082 5.2986
rCollar  1.7976e-016 -5.12864e-014 1.62755e-015
rShldr  -41.9011 62.8747 -28.0638
rForeArm  2.30146 1.01588 26.1163
rHand  -0.40127 -22.9602 6.33392
lThigh  -7.01878 -17.2747 -2.54452
lShin  -16.8818 14.8689 -4.89717
lFoot  8.74146 -1.07732 1.25998
rThigh  9.90712 -10.9996 -3.68577
rShin  1.00792 -0.00388679 3.61494
rFoot  1.51604 -0.858295 -9.69941
